<?xml version="1.0" encoding="UTF-8"?>
<!DOCTYPE svg PUBLIC "-//W3C//DTD SVG 1.1//EN"
    "http://www.w3.org/Graphics/SVG/1.1/DTD/svg11.dtd"><svg xmlns="http://www.w3.org/2000/svg" height="46.1538" stroke-opacity="1" viewBox="0 0 600 46" font-size="1" width="600.0000" xmlns:xlink="http://www.w3.org/1999/xlink" stroke="rgb(0,0,0)" version="1.1"><defs></defs><g stroke-linejoin="miter" stroke-opacity="1.0" fill-opacity="1.0" stroke="rgb(0,0,0)" stroke-width="0.6656402354702751" fill="rgb(255,255,0)" stroke-linecap="butt" stroke-miterlimit="10.0"><path d="M 553.8462,23.0769 l -0.0000,7.6923 c 4.2483,0.0000 7.6923,-3.4440 7.6923 -7.6923c 0.0000,-4.2483 -3.4440,-7.6923 -7.6923 -7.6923Z"/></g><g stroke-linejoin="miter" stroke-opacity="1.0" fill-opacity="1.0" stroke="rgb(0,0,0)" stroke-width="0.6656402354702751" fill="rgb(238,232,170)" stroke-linecap="butt" stroke-miterlimit="10.0"><path d="M 569.2308,46.1538 l 15.3846,0.0000 c 0.0000,-8.4967 6.8879,-15.3846 15.3846 -15.3846l 0.0000,-15.3846 c -8.4967,-0.0000 -15.3846,-6.8879 -15.3846 -15.3846l -15.3846,-0.0000 Z"/></g><g stroke-linejoin="miter" stroke-opacity="1.0" fill-opacity="1.0" stroke="rgb(0,0,0)" stroke-width="0.6656402354702751" fill="rgb(255,255,0)" stroke-linecap="butt" stroke-miterlimit="10.0"><path d="M 530.7692,0.0000 l -7.6923,-0.0000 c -0.0000,4.2483 3.4440,7.6923 7.6923 7.6923c 4.2483,0.0000 7.6923,-3.4440 7.6923 -7.6923Z"/></g><g stroke-linejoin="miter" stroke-opacity="1.0" fill-opacity="1.0" stroke="rgb(0,0,0)" stroke-width="0.6656402354702751" fill="rgb(238,232,170)" stroke-linecap="butt" stroke-miterlimit="10.0"><path d="M 507.6923,15.3846 l -0.0000,15.3846 c 8.4967,0.0000 15.3846,6.8879 15.3846 15.3846l 15.3846,0.0000 c 0.0000,-8.4967 6.8879,-15.3846 15.3846 -15.3846l 0.0000,-15.3846 Z"/></g><g stroke-linejoin="miter" stroke-opacity="1.0" fill-opacity="1.0" stroke="rgb(0,0,0)" stroke-width="0.6656402354702751" fill="rgb(255,255,0)" stroke-linecap="butt" stroke-miterlimit="10.0"><path d="M 507.6923,23.0769 l 0.0000,-7.6923 c -4.2483,-0.0000 -7.6923,3.4440 -7.6923 7.6923c -0.0000,4.2483 3.4440,7.6923 7.6923 7.6923Z"/></g><g stroke-linejoin="miter" stroke-opacity="1.0" fill-opacity="1.0" stroke="rgb(0,0,0)" stroke-width="0.6656402354702751" fill="rgb(238,232,170)" stroke-linecap="butt" stroke-miterlimit="10.0"><path d="M 492.3077,0.0000 l -15.3846,-0.0000 c -0.0000,8.4967 -6.8879,15.3846 -15.3846 15.3846l -0.0000,15.3846 c 8.4967,0.0000 15.3846,6.8879 15.3846 15.3846l 15.3846,0.0000 Z"/></g><g stroke-linejoin="miter" stroke-opacity="1.0" fill-opacity="1.0" stroke="rgb(0,0,0)" stroke-width="0.6656402354702751" fill="rgb(255,255,0)" stroke-linecap="butt" stroke-miterlimit="10.0"><path d="M 438.4615,46.1538 h 7.6923 c 0.0000,-4.2483 -3.4440,-7.6923 -7.6923 -7.6923c -4.2483,-0.0000 -7.6923,3.4440 -7.6923 7.6923Z"/></g><g stroke-linejoin="miter" stroke-opacity="1.0" fill-opacity="1.0" stroke="rgb(0,0,0)" stroke-width="0.6656402354702751" fill="rgb(238,232,170)" stroke-linecap="butt" stroke-miterlimit="10.0"><path d="M 461.5385,30.7692 v -15.3846 c -8.4967,-0.0000 -15.3846,-6.8879 -15.3846 -15.3846h -15.3846 c -0.0000,8.4967 -6.8879,15.3846 -15.3846 15.3846v 15.3846 Z"/></g><g stroke-linejoin="miter" stroke-opacity="1.0" fill-opacity="1.0" stroke="rgb(0,0,0)" stroke-width="0.6656402354702751" fill="rgb(255,255,0)" stroke-linecap="butt" stroke-miterlimit="10.0"><path d="M 392.3077,46.1538 h 7.6923 c 0.0000,-4.2483 -3.4440,-7.6923 -7.6923 -7.6923c -4.2483,-0.0000 -7.6923,3.4440 -7.6923 7.6923Z"/></g><g stroke-linejoin="miter" stroke-opacity="1.0" fill-opacity="1.0" stroke="rgb(0,0,0)" stroke-width="0.6656402354702751" fill="rgb(255,255,0)" stroke-linecap="butt" stroke-miterlimit="10.0"><path d="M 392.3077,0.0000 l -7.6923,-0.0000 c -0.0000,4.2483 3.4440,7.6923 7.6923 7.6923c 4.2483,0.0000 7.6923,-3.4440 7.6923 -7.6923Z"/></g><g stroke-linejoin="miter" stroke-opacity="1.0" fill-opacity="1.0" stroke="rgb(0,0,0)" stroke-width="0.6656402354702751" fill="rgb(255,192,203)" stroke-linecap="butt" stroke-miterlimit="10.0"><path d="M 415.3846,30.7692 l -0.0000,-15.3846 h -46.1538 l -0.0000,15.3846 Z"/></g><g stroke-linejoin="miter" stroke-opacity="1.0" fill-opacity="1.0" stroke="rgb(0,0,0)" stroke-width="0.6656402354702751" fill="rgb(255,255,0)" stroke-linecap="butt" stroke-miterlimit="10.0"><path d="M 369.2308,23.0769 l 0.0000,-7.6923 c -4.2483,-0.0000 -7.6923,3.4440 -7.6923 7.6923c -0.0000,4.2483 3.4440,7.6923 7.6923 7.6923Z"/></g><g stroke-linejoin="miter" stroke-opacity="1.0" fill-opacity="1.0" stroke="rgb(0,0,0)" stroke-width="0.6656402354702751" fill="rgb(255,255,0)" stroke-linecap="butt" stroke-miterlimit="10.0"><path d="M 323.0769,23.0769 l -0.0000,7.6923 c 4.2483,0.0000 7.6923,-3.4440 7.6923 -7.6923c 0.0000,-4.2483 -3.4440,-7.6923 -7.6923 -7.6923Z"/></g><g stroke-linejoin="miter" stroke-opacity="1.0" fill-opacity="1.0" stroke="rgb(0,0,0)" stroke-width="0.6656402354702751" fill="rgb(255,192,203)" stroke-linecap="butt" stroke-miterlimit="10.0"><path d="M 353.8462,46.1538 l -0.0000,-46.1538 h -15.3846 l -0.0000,46.1538 Z"/></g><g stroke-linejoin="miter" stroke-opacity="1.0" fill-opacity="1.0" stroke="rgb(0,0,0)" stroke-width="0.6656402354702751" fill="rgb(255,255,0)" stroke-linecap="butt" stroke-miterlimit="10.0"><path d="M 276.9231,23.0769 l -0.0000,7.6923 c 4.2483,0.0000 7.6923,-3.4440 7.6923 -7.6923c 0.0000,-4.2483 -3.4440,-7.6923 -7.6923 -7.6923Z"/></g><g stroke-linejoin="miter" stroke-opacity="1.0" fill-opacity="1.0" stroke="rgb(0,0,0)" stroke-width="0.6656402354702751" fill="rgb(255,255,0)" stroke-linecap="butt" stroke-miterlimit="10.0"><path d="M 300.0000,0.0000 l -7.6923,-0.0000 c -0.0000,4.2483 3.4440,7.6923 7.6923 7.6923c 4.2483,0.0000 7.6923,-3.4440 7.6923 -7.6923Z"/></g><g stroke-linejoin="miter" stroke-opacity="1.0" fill-opacity="1.0" stroke="rgb(0,0,0)" stroke-width="0.6656402354702751" fill="rgb(173,216,230)" stroke-linecap="butt" stroke-miterlimit="10.0"><path d="M 323.0769,30.7692 l 0.0000,-15.3846 c -16.9934,-0.0000 -30.7692,13.7759 -30.7692 30.7692l 15.3846,0.0000 c 0.0000,-8.4967 6.8879,-15.3846 15.3846 -15.3846Z"/></g><g stroke-linejoin="miter" stroke-opacity="1.0" fill-opacity="1.0" stroke="rgb(0,0,0)" stroke-width="0.6656402354702751" fill="rgb(255,255,0)" stroke-linecap="butt" stroke-miterlimit="10.0"><path d="M 276.9231,23.0769 l 0.0000,-7.6923 c -4.2483,-0.0000 -7.6923,3.4440 -7.6923 7.6923c -0.0000,4.2483 3.4440,7.6923 7.6923 7.6923Z"/></g><g stroke-linejoin="miter" stroke-opacity="1.0" fill-opacity="1.0" stroke="rgb(0,0,0)" stroke-width="0.6656402354702751" fill="rgb(255,255,0)" stroke-linecap="butt" stroke-miterlimit="10.0"><path d="M 253.8462,0.0000 l -7.6923,-0.0000 c -0.0000,4.2483 3.4440,7.6923 7.6923 7.6923c 4.2483,0.0000 7.6923,-3.4440 7.6923 -7.6923Z"/></g><g stroke-linejoin="miter" stroke-opacity="1.0" fill-opacity="1.0" stroke="rgb(0,0,0)" stroke-width="0.6656402354702751" fill="rgb(173,216,230)" stroke-linecap="butt" stroke-miterlimit="10.0"><path d="M 246.1538,46.1538 h 15.3846 c 0.0000,-16.9934 -13.7759,-30.7692 -30.7692 -30.7692l -0.0000,15.3846 c 8.4967,0.0000 15.3846,6.8879 15.3846 15.3846Z"/></g><g stroke-linejoin="miter" stroke-opacity="1.0" fill-opacity="1.0" stroke="rgb(0,0,0)" stroke-width="0.6656402354702751" fill="rgb(255,255,0)" stroke-linecap="butt" stroke-miterlimit="10.0"><path d="M 184.6154,23.0769 l -0.0000,7.6923 c 4.2483,0.0000 7.6923,-3.4440 7.6923 -7.6923c 0.0000,-4.2483 -3.4440,-7.6923 -7.6923 -7.6923Z"/></g><g stroke-linejoin="miter" stroke-opacity="1.0" fill-opacity="1.0" stroke="rgb(0,0,0)" stroke-width="0.6656402354702751" fill="rgb(255,255,0)" stroke-linecap="butt" stroke-miterlimit="10.0"><path d="M 207.6923,46.1538 h 7.6923 c 0.0000,-4.2483 -3.4440,-7.6923 -7.6923 -7.6923c -4.2483,-0.0000 -7.6923,3.4440 -7.6923 7.6923Z"/></g><g stroke-linejoin="miter" stroke-opacity="1.0" fill-opacity="1.0" stroke="rgb(0,0,0)" stroke-width="0.6656402354702751" fill="rgb(173,216,230)" stroke-linecap="butt" stroke-miterlimit="10.0"><path d="M 215.3846,0.0000 l -15.3846,-0.0000 c -0.0000,16.9934 13.7759,30.7692 30.7692 30.7692l 0.0000,-15.3846 c -8.4967,-0.0000 -15.3846,-6.8879 -15.3846 -15.3846Z"/></g><g stroke-linejoin="miter" stroke-opacity="1.0" fill-opacity="1.0" stroke="rgb(0,0,0)" stroke-width="0.6656402354702751" fill="rgb(255,255,0)" stroke-linecap="butt" stroke-miterlimit="10.0"><path d="M 184.6154,23.0769 l 0.0000,-7.6923 c -4.2483,-0.0000 -7.6923,3.4440 -7.6923 7.6923c -0.0000,4.2483 3.4440,7.6923 7.6923 7.6923Z"/></g><g stroke-linejoin="miter" stroke-opacity="1.0" fill-opacity="1.0" stroke="rgb(0,0,0)" stroke-width="0.6656402354702751" fill="rgb(255,255,0)" stroke-linecap="butt" stroke-miterlimit="10.0"><path d="M 161.5385,46.1538 h 7.6923 c 0.0000,-4.2483 -3.4440,-7.6923 -7.6923 -7.6923c -4.2483,-0.0000 -7.6923,3.4440 -7.6923 7.6923Z"/></g><g stroke-linejoin="miter" stroke-opacity="1.0" fill-opacity="1.0" stroke="rgb(0,0,0)" stroke-width="0.6656402354702751" fill="rgb(173,216,230)" stroke-linecap="butt" stroke-miterlimit="10.0"><path d="M 138.4615,15.3846 l -0.0000,15.3846 c 16.9934,0.0000 30.7692,-13.7759 30.7692 -30.7692l -15.3846,-0.0000 c -0.0000,8.4967 -6.8879,15.3846 -15.3846 15.3846Z"/></g><g stroke-linejoin="miter" stroke-opacity="1.0" fill-opacity="1.0" stroke="rgb(0,0,0)" stroke-width="0.6656402354702751" fill="rgb(173,216,230)" stroke-linecap="butt" stroke-miterlimit="10.0"><path d="M 107.6923,46.1538 h 15.3846 c 0.0000,-16.9934 -13.7759,-30.7692 -30.7692 -30.7692l -0.0000,15.3846 c 8.4967,0.0000 15.3846,6.8879 15.3846 15.3846Z"/></g><g stroke-linejoin="miter" stroke-opacity="1.0" fill-opacity="1.0" stroke="rgb(0,0,0)" stroke-width="0.6656402354702751" fill="rgb(173,216,230)" stroke-linecap="butt" stroke-miterlimit="10.0"><path d="M 123.0769,0.0000 l -15.3846,-0.0000 c -0.0000,16.9934 13.7759,30.7692 30.7692 30.7692l 0.0000,-15.3846 c -8.4967,-0.0000 -15.3846,-6.8879 -15.3846 -15.3846Z"/></g><g stroke-linejoin="miter" stroke-opacity="1.0" fill-opacity="1.0" stroke="rgb(0,0,0)" stroke-width="0.6656402354702751" fill="rgb(173,216,230)" stroke-linecap="butt" stroke-miterlimit="10.0"><path d="M 92.3077,30.7692 l 0.0000,-15.3846 c -16.9934,-0.0000 -30.7692,13.7759 -30.7692 30.7692l 15.3846,0.0000 c 0.0000,-8.4967 6.8879,-15.3846 15.3846 -15.3846Z"/></g><g stroke-linejoin="miter" stroke-opacity="1.0" fill-opacity="1.0" stroke="rgb(0,0,0)" stroke-width="0.6656402354702751" fill="rgb(173,216,230)" stroke-linecap="butt" stroke-miterlimit="10.0"><path d="M 46.1538,15.3846 l -0.0000,15.3846 c 16.9934,0.0000 30.7692,-13.7759 30.7692 -30.7692l -15.3846,-0.0000 c -0.0000,8.4967 -6.8879,15.3846 -15.3846 15.3846Z"/></g><g stroke-linejoin="miter" stroke-opacity="1.0" fill-opacity="1.0" stroke="rgb(0,0,0)" stroke-width="0.6656402354702751" fill="rgb(255,255,0)" stroke-linecap="butt" stroke-miterlimit="10.0"><path d="M 23.0769,46.1538 h 7.6923 c 0.0000,-4.2483 -3.4440,-7.6923 -7.6923 -7.6923c -4.2483,-0.0000 -7.6923,3.4440 -7.6923 7.6923Z"/></g><g stroke-linejoin="miter" stroke-opacity="1.0" fill-opacity="1.0" stroke="rgb(0,0,0)" stroke-width="0.6656402354702751" fill="rgb(255,255,0)" stroke-linecap="butt" stroke-miterlimit="10.0"><path d="M 46.1538,23.0769 l 0.0000,-7.6923 c -4.2483,-0.0000 -7.6923,3.4440 -7.6923 7.6923c -0.0000,4.2483 3.4440,7.6923 7.6923 7.6923Z"/></g><g stroke-linejoin="miter" stroke-opacity="1.0" fill-opacity="1.0" stroke="rgb(0,0,0)" stroke-width="0.6656402354702751" fill="rgb(255,255,0)" stroke-linecap="butt" stroke-miterlimit="10.0"><path d="M 0.0000,23.0769 l -0.0000,7.6923 c 4.2483,0.0000 7.6923,-3.4440 7.6923 -7.6923c 0.0000,-4.2483 -3.4440,-7.6923 -7.6923 -7.6923Z"/></g><g stroke-linejoin="miter" stroke-opacity="1.0" fill-opacity="1.0" stroke="rgb(0,0,0)" stroke-width="0.6656402354702751" fill="rgb(255,255,0)" stroke-linecap="butt" stroke-miterlimit="10.0"><path d="M 23.0769,0.0000 l -7.6923,-0.0000 c -0.0000,4.2483 3.4440,7.6923 7.6923 7.6923c 4.2483,0.0000 7.6923,-3.4440 7.6923 -7.6923Z"/></g></svg>