<?xml version="1.0" encoding="UTF-8"?>
<!DOCTYPE svg PUBLIC "-//W3C//DTD SVG 1.1//EN"
    "http://www.w3.org/Graphics/SVG/1.1/DTD/svg11.dtd"><svg xmlns="http://www.w3.org/2000/svg" height="400.0000" stroke-opacity="1" viewBox="0 0 400 400" font-size="1" width="400.0000" xmlns:xlink="http://www.w3.org/1999/xlink" stroke="rgb(0,0,0)" version="1.1"><defs></defs><g stroke-linejoin="miter" stroke-opacity="1.0" fill-opacity="0.0" stroke="rgb(0,0,0)" stroke-width="1.6000000000000003" fill="rgb(0,0,0)" stroke-linecap="butt" stroke-miterlimit="10.0"><path d="M 394.7368,394.7368 l -0.0000,-394.7368 h -394.7368 l -0.0000,394.7368 Z"/></g><g stroke-linejoin="miter" stroke-opacity="1.0" fill-opacity="1.0" stroke="rgb(0,0,0)" stroke-width="0.0" fill="rgb(255,0,0)" stroke-linecap="butt" stroke-miterlimit="10.0"><path d="M 205.2632,197.3684 c 0.0000,-4.3601 -3.5346,-7.8947 -7.8947 -7.8947c -4.3601,-0.0000 -7.8947,3.5346 -7.8947 7.8947c -0.0000,4.3601 3.5346,7.8947 7.8947 7.8947c 4.3601,0.0000 7.8947,-3.5346 7.8947 -7.8947Z"/></g><g stroke-linejoin="miter" stroke-opacity="1.0" fill-opacity="0.0" stroke="rgb(0,0,0)" stroke-width="1.6000000000000003" fill="rgb(0,0,0)" stroke-linecap="butt" stroke-miterlimit="10.0"><path d="M 394.7368,263.1579 l 0.0000,-131.5789 c -145.3381,-0.0000 -263.1579,117.8198 -263.1579 263.1579l 131.5789,0.0000 c 0.0000,-72.6690 58.9099,-131.5789 131.5789 -131.5789Z"/></g><g stroke-linejoin="miter" stroke-opacity="1.0" fill-opacity="1.0" stroke="rgb(0,0,0)" stroke-width="0.0" fill="rgb(255,0,0)" stroke-linecap="butt" stroke-miterlimit="10.0"><path d="M 400.0000,394.7368 c 0.0000,-2.9068 -2.3564,-5.2632 -5.2632 -5.2632c -2.9068,-0.0000 -5.2632,2.3564 -5.2632 5.2632c -0.0000,2.9068 2.3564,5.2632 5.2632 5.2632c 2.9068,0.0000 5.2632,-2.3564 5.2632 -5.2632Z"/></g></svg>