<?xml version="1.0" encoding="UTF-8"?>
<!DOCTYPE svg PUBLIC "-//W3C//DTD SVG 1.1//EN"
    "http://www.w3.org/Graphics/SVG/1.1/DTD/svg11.dtd"><svg xmlns="http://www.w3.org/2000/svg" height="750.0000" stroke-opacity="1" viewBox="0 0 600 750" font-size="1" width="600.0000" xmlns:xlink="http://www.w3.org/1999/xlink" stroke="rgb(0,0,0)" version="1.1"><defs></defs><g stroke-linejoin="miter" stroke-opacity="1.0" fill-opacity="1.0" stroke="rgb(0,0,0)" stroke-width="2.6832815729997477" fill="rgb(0,0,0)" stroke-linecap="butt" stroke-miterlimit="10.0"><path d="M 600.0000,750.0000 l -0.0000,-150.0000 h -150.0000 l -0.0000,150.0000 Z"/></g><g stroke-linejoin="miter" stroke-opacity="1.0" fill-opacity="1.0" stroke="rgb(0,0,0)" stroke-width="2.6832815729997477" fill="rgb(255,255,0)" stroke-linecap="butt" stroke-miterlimit="10.0"><path d="M 450.0000,675.0000 l -0.0000,25.0000 c 13.8071,0.0000 25.0000,-11.1929 25.0000 -25.0000c 0.0000,-13.8071 -11.1929,-25.0000 -25.0000 -25.0000Z"/></g><g stroke-linejoin="miter" stroke-opacity="1.0" fill-opacity="1.0" stroke="rgb(0,0,0)" stroke-width="2.6832815729997477" fill="rgb(238,232,170)" stroke-linecap="butt" stroke-miterlimit="10.0"><path d="M 500.0000,750.0000 l 50.0000,0.0000 c 0.0000,-27.6142 22.3858,-50.0000 50.0000 -50.0000l 0.0000,-50.0000 c -27.6142,-0.0000 -50.0000,-22.3858 -50.0000 -50.0000l -50.0000,-0.0000 Z"/></g><g stroke-linejoin="miter" stroke-opacity="1.0" fill-opacity="1.0" stroke="rgb(0,0,0)" stroke-width="2.6832815729997477" fill="rgb(0,0,0)" stroke-linecap="butt" stroke-miterlimit="10.0"><path d="M 450.0000,750.0000 l -0.0000,-150.0000 h -150.0000 l -0.0000,150.0000 Z"/></g><g stroke-linejoin="miter" stroke-opacity="1.0" fill-opacity="1.0" stroke="rgb(0,0,0)" stroke-width="2.6832815729997477" fill="rgb(255,255,0)" stroke-linecap="butt" stroke-miterlimit="10.0"><path d="M 375.0000,600.0000 l -25.0000,-0.0000 c -0.0000,13.8071 11.1929,25.0000 25.0000 25.0000c 13.8071,0.0000 25.0000,-11.1929 25.0000 -25.0000Z"/></g><g stroke-linejoin="miter" stroke-opacity="1.0" fill-opacity="1.0" stroke="rgb(0,0,0)" stroke-width="2.6832815729997477" fill="rgb(238,232,170)" stroke-linecap="butt" stroke-miterlimit="10.0"><path d="M 300.0000,650.0000 l -0.0000,50.0000 c 27.6142,0.0000 50.0000,22.3858 50.0000 50.0000l 50.0000,0.0000 c 0.0000,-27.6142 22.3858,-50.0000 50.0000 -50.0000l 0.0000,-50.0000 Z"/></g><g stroke-linejoin="miter" stroke-opacity="1.0" fill-opacity="1.0" stroke="rgb(0,0,0)" stroke-width="2.6832815729997477" fill="rgb(0,0,0)" stroke-linecap="butt" stroke-miterlimit="10.0"><path d="M 300.0000,750.0000 l -0.0000,-150.0000 h -150.0000 l -0.0000,150.0000 Z"/></g><g stroke-linejoin="miter" stroke-opacity="1.0" fill-opacity="1.0" stroke="rgb(0,0,0)" stroke-width="2.6832815729997477" fill="rgb(255,255,0)" stroke-linecap="butt" stroke-miterlimit="10.0"><path d="M 300.0000,675.0000 l 0.0000,-25.0000 c -13.8071,-0.0000 -25.0000,11.1929 -25.0000 25.0000c -0.0000,13.8071 11.1929,25.0000 25.0000 25.0000Z"/></g><g stroke-linejoin="miter" stroke-opacity="1.0" fill-opacity="1.0" stroke="rgb(0,0,0)" stroke-width="2.6832815729997477" fill="rgb(238,232,170)" stroke-linecap="butt" stroke-miterlimit="10.0"><path d="M 250.0000,600.0000 l -50.0000,-0.0000 c -0.0000,27.6142 -22.3858,50.0000 -50.0000 50.0000l -0.0000,50.0000 c 27.6142,0.0000 50.0000,22.3858 50.0000 50.0000l 50.0000,0.0000 Z"/></g><g stroke-linejoin="miter" stroke-opacity="1.0" fill-opacity="1.0" stroke="rgb(0,0,0)" stroke-width="2.6832815729997477" fill="rgb(0,0,0)" stroke-linecap="butt" stroke-miterlimit="10.0"><path d="M 150.0000,750.0000 l -0.0000,-150.0000 h -150.0000 l -0.0000,150.0000 Z"/></g><g stroke-linejoin="miter" stroke-opacity="1.0" fill-opacity="1.0" stroke="rgb(0,0,0)" stroke-width="2.6832815729997477" fill="rgb(255,255,0)" stroke-linecap="butt" stroke-miterlimit="10.0"><path d="M 75.0000,750.0000 h 25.0000 c 0.0000,-13.8071 -11.1929,-25.0000 -25.0000 -25.0000c -13.8071,-0.0000 -25.0000,11.1929 -25.0000 25.0000Z"/></g><g stroke-linejoin="miter" stroke-opacity="1.0" fill-opacity="1.0" stroke="rgb(0,0,0)" stroke-width="2.6832815729997477" fill="rgb(238,232,170)" stroke-linecap="butt" stroke-miterlimit="10.0"><path d="M 150.0000,700.0000 v -50.0000 c -27.6142,-0.0000 -50.0000,-22.3858 -50.0000 -50.0000h -50.0000 c -0.0000,27.6142 -22.3858,50.0000 -50.0000 50.0000v 50.0000 Z"/></g><g stroke-linejoin="miter" stroke-opacity="1.0" fill-opacity="1.0" stroke="rgb(0,0,0)" stroke-width="2.6832815729997477" fill="rgb(0,0,0)" stroke-linecap="butt" stroke-miterlimit="10.0"><path d="M 600.0000,600.0000 l -0.0000,-150.0000 h -150.0000 l -0.0000,150.0000 Z"/></g><g stroke-linejoin="miter" stroke-opacity="1.0" fill-opacity="1.0" stroke="rgb(0,0,0)" stroke-width="2.6832815729997477" fill="rgb(255,255,0)" stroke-linecap="butt" stroke-miterlimit="10.0"><path d="M 450.0000,525.0000 l -0.0000,25.0000 c 13.8071,0.0000 25.0000,-11.1929 25.0000 -25.0000c 0.0000,-13.8071 -11.1929,-25.0000 -25.0000 -25.0000Z"/></g><g stroke-linejoin="miter" stroke-opacity="1.0" fill-opacity="1.0" stroke="rgb(0,0,0)" stroke-width="2.6832815729997477" fill="rgb(255,255,0)" stroke-linecap="butt" stroke-miterlimit="10.0"><path d="M 525.0000,450.0000 l -25.0000,-0.0000 c -0.0000,13.8071 11.1929,25.0000 25.0000 25.0000c 13.8071,0.0000 25.0000,-11.1929 25.0000 -25.0000Z"/></g><g stroke-linejoin="miter" stroke-opacity="1.0" fill-opacity="1.0" stroke="rgb(0,0,0)" stroke-width="2.6832815729997477" fill="rgb(173,216,230)" stroke-linecap="butt" stroke-miterlimit="10.0"><path d="M 600.0000,550.0000 l 0.0000,-50.0000 c -55.2285,-0.0000 -100.0000,44.7715 -100.0000 100.0000l 50.0000,0.0000 c 0.0000,-27.6142 22.3858,-50.0000 50.0000 -50.0000Z"/></g><g stroke-linejoin="miter" stroke-opacity="1.0" fill-opacity="1.0" stroke="rgb(0,0,0)" stroke-width="2.6832815729997477" fill="rgb(0,0,0)" stroke-linecap="butt" stroke-miterlimit="10.0"><path d="M 450.0000,600.0000 l -0.0000,-150.0000 h -150.0000 l -0.0000,150.0000 Z"/></g><g stroke-linejoin="miter" stroke-opacity="1.0" fill-opacity="1.0" stroke="rgb(0,0,0)" stroke-width="2.6832815729997477" fill="rgb(255,255,0)" stroke-linecap="butt" stroke-miterlimit="10.0"><path d="M 450.0000,525.0000 l 0.0000,-25.0000 c -13.8071,-0.0000 -25.0000,11.1929 -25.0000 25.0000c -0.0000,13.8071 11.1929,25.0000 25.0000 25.0000Z"/></g><g stroke-linejoin="miter" stroke-opacity="1.0" fill-opacity="1.0" stroke="rgb(0,0,0)" stroke-width="2.6832815729997477" fill="rgb(255,255,0)" stroke-linecap="butt" stroke-miterlimit="10.0"><path d="M 375.0000,450.0000 l -25.0000,-0.0000 c -0.0000,13.8071 11.1929,25.0000 25.0000 25.0000c 13.8071,0.0000 25.0000,-11.1929 25.0000 -25.0000Z"/></g><g stroke-linejoin="miter" stroke-opacity="1.0" fill-opacity="1.0" stroke="rgb(0,0,0)" stroke-width="2.6832815729997477" fill="rgb(173,216,230)" stroke-linecap="butt" stroke-miterlimit="10.0"><path d="M 350.0000,600.0000 h 50.0000 c 0.0000,-55.2285 -44.7715,-100.0000 -100.0000 -100.0000l -0.0000,50.0000 c 27.6142,0.0000 50.0000,22.3858 50.0000 50.0000Z"/></g><g stroke-linejoin="miter" stroke-opacity="1.0" fill-opacity="1.0" stroke="rgb(0,0,0)" stroke-width="2.6832815729997477" fill="rgb(0,0,0)" stroke-linecap="butt" stroke-miterlimit="10.0"><path d="M 300.0000,600.0000 l -0.0000,-150.0000 h -150.0000 l -0.0000,150.0000 Z"/></g><g stroke-linejoin="miter" stroke-opacity="1.0" fill-opacity="1.0" stroke="rgb(0,0,0)" stroke-width="2.6832815729997477" fill="rgb(255,255,0)" stroke-linecap="butt" stroke-miterlimit="10.0"><path d="M 150.0000,525.0000 l -0.0000,25.0000 c 13.8071,0.0000 25.0000,-11.1929 25.0000 -25.0000c 0.0000,-13.8071 -11.1929,-25.0000 -25.0000 -25.0000Z"/></g><g stroke-linejoin="miter" stroke-opacity="1.0" fill-opacity="1.0" stroke="rgb(0,0,0)" stroke-width="2.6832815729997477" fill="rgb(255,255,0)" stroke-linecap="butt" stroke-miterlimit="10.0"><path d="M 225.0000,600.0000 h 25.0000 c 0.0000,-13.8071 -11.1929,-25.0000 -25.0000 -25.0000c -13.8071,-0.0000 -25.0000,11.1929 -25.0000 25.0000Z"/></g><g stroke-linejoin="miter" stroke-opacity="1.0" fill-opacity="1.0" stroke="rgb(0,0,0)" stroke-width="2.6832815729997477" fill="rgb(173,216,230)" stroke-linecap="butt" stroke-miterlimit="10.0"><path d="M 250.0000,450.0000 l -50.0000,-0.0000 c -0.0000,55.2285 44.7715,100.0000 100.0000 100.0000l 0.0000,-50.0000 c -27.6142,-0.0000 -50.0000,-22.3858 -50.0000 -50.0000Z"/></g><g stroke-linejoin="miter" stroke-opacity="1.0" fill-opacity="1.0" stroke="rgb(0,0,0)" stroke-width="2.6832815729997477" fill="rgb(0,0,0)" stroke-linecap="butt" stroke-miterlimit="10.0"><path d="M 150.0000,600.0000 l -0.0000,-150.0000 h -150.0000 l -0.0000,150.0000 Z"/></g><g stroke-linejoin="miter" stroke-opacity="1.0" fill-opacity="1.0" stroke="rgb(0,0,0)" stroke-width="2.6832815729997477" fill="rgb(255,255,0)" stroke-linecap="butt" stroke-miterlimit="10.0"><path d="M 150.0000,525.0000 l 0.0000,-25.0000 c -13.8071,-0.0000 -25.0000,11.1929 -25.0000 25.0000c -0.0000,13.8071 11.1929,25.0000 25.0000 25.0000Z"/></g><g stroke-linejoin="miter" stroke-opacity="1.0" fill-opacity="1.0" stroke="rgb(0,0,0)" stroke-width="2.6832815729997477" fill="rgb(255,255,0)" stroke-linecap="butt" stroke-miterlimit="10.0"><path d="M 75.0000,600.0000 h 25.0000 c 0.0000,-13.8071 -11.1929,-25.0000 -25.0000 -25.0000c -13.8071,-0.0000 -25.0000,11.1929 -25.0000 25.0000Z"/></g><g stroke-linejoin="miter" stroke-opacity="1.0" fill-opacity="1.0" stroke="rgb(0,0,0)" stroke-width="2.6832815729997477" fill="rgb(173,216,230)" stroke-linecap="butt" stroke-miterlimit="10.0"><path d="M -0.0000,500.0000 l -0.0000,50.0000 c 55.2285,0.0000 100.0000,-44.7715 100.0000 -100.0000l -50.0000,-0.0000 c -0.0000,27.6142 -22.3858,50.0000 -50.0000 50.0000Z"/></g><g stroke-linejoin="miter" stroke-opacity="1.0" fill-opacity="1.0" stroke="rgb(0,0,0)" stroke-width="2.6832815729997477" fill="rgb(0,0,0)" stroke-linecap="butt" stroke-miterlimit="10.0"><path d="M 300.0000,450.0000 l -0.0000,-150.0000 h -150.0000 l -0.0000,150.0000 Z"/></g><g stroke-linejoin="miter" stroke-opacity="1.0" fill-opacity="1.0" stroke="rgb(0,0,0)" stroke-width="2.6832815729997477" fill="rgb(255,255,0)" stroke-linecap="butt" stroke-miterlimit="10.0"><path d="M 225.0000,450.0000 h 25.0000 c 0.0000,-13.8071 -11.1929,-25.0000 -25.0000 -25.0000c -13.8071,-0.0000 -25.0000,11.1929 -25.0000 25.0000Z"/></g><g stroke-linejoin="miter" stroke-opacity="1.0" fill-opacity="1.0" stroke="rgb(0,0,0)" stroke-width="2.6832815729997477" fill="rgb(255,255,0)" stroke-linecap="butt" stroke-miterlimit="10.0"><path d="M 225.0000,300.0000 l -25.0000,-0.0000 c -0.0000,13.8071 11.1929,25.0000 25.0000 25.0000c 13.8071,0.0000 25.0000,-11.1929 25.0000 -25.0000Z"/></g><g stroke-linejoin="miter" stroke-opacity="1.0" fill-opacity="1.0" stroke="rgb(0,0,0)" stroke-width="2.6832815729997477" fill="rgb(255,192,203)" stroke-linecap="butt" stroke-miterlimit="10.0"><path d="M 300.0000,400.0000 l -0.0000,-50.0000 h -150.0000 l -0.0000,50.0000 Z"/></g><g stroke-linejoin="miter" stroke-opacity="1.0" fill-opacity="1.0" stroke="rgb(0,0,0)" stroke-width="2.6832815729997477" fill="rgb(0,0,0)" stroke-linecap="butt" stroke-miterlimit="10.0"><path d="M 150.0000,450.0000 l -0.0000,-150.0000 h -150.0000 l -0.0000,150.0000 Z"/></g><g stroke-linejoin="miter" stroke-opacity="1.0" fill-opacity="1.0" stroke="rgb(0,0,0)" stroke-width="2.6832815729997477" fill="rgb(255,255,0)" stroke-linecap="butt" stroke-miterlimit="10.0"><path d="M 150.0000,375.0000 l 0.0000,-25.0000 c -13.8071,-0.0000 -25.0000,11.1929 -25.0000 25.0000c -0.0000,13.8071 11.1929,25.0000 25.0000 25.0000Z"/></g><g stroke-linejoin="miter" stroke-opacity="1.0" fill-opacity="1.0" stroke="rgb(0,0,0)" stroke-width="2.6832815729997477" fill="rgb(255,255,0)" stroke-linecap="butt" stroke-miterlimit="10.0"><path d="M 0.0000,375.0000 l -0.0000,25.0000 c 13.8071,0.0000 25.0000,-11.1929 25.0000 -25.0000c 0.0000,-13.8071 -11.1929,-25.0000 -25.0000 -25.0000Z"/></g><g stroke-linejoin="miter" stroke-opacity="1.0" fill-opacity="1.0" stroke="rgb(0,0,0)" stroke-width="2.6832815729997477" fill="rgb(255,192,203)" stroke-linecap="butt" stroke-miterlimit="10.0"><path d="M 100.0000,450.0000 l -0.0000,-150.0000 h -50.0000 l -0.0000,150.0000 Z"/></g><g stroke-linejoin="miter" stroke-opacity="1.0" fill-opacity="1.0" stroke="rgb(0,0,0)" stroke-width="2.6832815729997477" fill="rgb(0,0,0)" stroke-linecap="butt" stroke-miterlimit="10.0"><path d="M 300.0000,300.0000 l -0.0000,-150.0000 h -150.0000 l -0.0000,150.0000 Z"/></g><g stroke-linejoin="miter" stroke-opacity="1.0" fill-opacity="1.0" stroke="rgb(0,0,0)" stroke-width="2.6832815729997477" fill="rgb(173,216,230)" stroke-linecap="butt" stroke-miterlimit="10.0"><path d="M 200.0000,300.0000 h 50.0000 c 0.0000,-55.2285 -44.7715,-100.0000 -100.0000 -100.0000l -0.0000,50.0000 c 27.6142,0.0000 50.0000,22.3858 50.0000 50.0000Z"/></g><g stroke-linejoin="miter" stroke-opacity="1.0" fill-opacity="1.0" stroke="rgb(0,0,0)" stroke-width="2.6832815729997477" fill="rgb(173,216,230)" stroke-linecap="butt" stroke-miterlimit="10.0"><path d="M 250.0000,150.0000 l -50.0000,-0.0000 c -0.0000,55.2285 44.7715,100.0000 100.0000 100.0000l 0.0000,-50.0000 c -27.6142,-0.0000 -50.0000,-22.3858 -50.0000 -50.0000Z"/></g><g stroke-linejoin="miter" stroke-opacity="1.0" fill-opacity="1.0" stroke="rgb(0,0,0)" stroke-width="2.6832815729997477" fill="rgb(0,0,0)" stroke-linecap="butt" stroke-miterlimit="10.0"><path d="M 150.0000,300.0000 l -0.0000,-150.0000 h -150.0000 l -0.0000,150.0000 Z"/></g><g stroke-linejoin="miter" stroke-opacity="1.0" fill-opacity="1.0" stroke="rgb(0,0,0)" stroke-width="2.6832815729997477" fill="rgb(173,216,230)" stroke-linecap="butt" stroke-miterlimit="10.0"><path d="M 150.0000,250.0000 l 0.0000,-50.0000 c -55.2285,-0.0000 -100.0000,44.7715 -100.0000 100.0000l 50.0000,0.0000 c 0.0000,-27.6142 22.3858,-50.0000 50.0000 -50.0000Z"/></g><g stroke-linejoin="miter" stroke-opacity="1.0" fill-opacity="1.0" stroke="rgb(0,0,0)" stroke-width="2.6832815729997477" fill="rgb(173,216,230)" stroke-linecap="butt" stroke-miterlimit="10.0"><path d="M -0.0000,200.0000 l -0.0000,50.0000 c 55.2285,0.0000 100.0000,-44.7715 100.0000 -100.0000l -50.0000,-0.0000 c -0.0000,27.6142 -22.3858,50.0000 -50.0000 50.0000Z"/></g><g stroke-linejoin="miter" stroke-opacity="1.0" fill-opacity="1.0" stroke="rgb(0,0,0)" stroke-width="2.6832815729997477" fill="rgb(0,0,0)" stroke-linecap="butt" stroke-miterlimit="10.0"><path d="M 150.0000,150.0000 l -0.0000,-150.0000 h -150.0000 l -0.0000,150.0000 Z"/></g><g stroke-linejoin="miter" stroke-opacity="1.0" fill-opacity="1.0" stroke="rgb(0,0,0)" stroke-width="2.6832815729997477" fill="rgb(255,255,0)" stroke-linecap="butt" stroke-miterlimit="10.0"><path d="M 75.0000,150.0000 h 25.0000 c 0.0000,-13.8071 -11.1929,-25.0000 -25.0000 -25.0000c -13.8071,-0.0000 -25.0000,11.1929 -25.0000 25.0000Z"/></g><g stroke-linejoin="miter" stroke-opacity="1.0" fill-opacity="1.0" stroke="rgb(0,0,0)" stroke-width="2.6832815729997477" fill="rgb(255,255,0)" stroke-linecap="butt" stroke-miterlimit="10.0"><path d="M 150.0000,75.0000 l 0.0000,-25.0000 c -13.8071,-0.0000 -25.0000,11.1929 -25.0000 25.0000c -0.0000,13.8071 11.1929,25.0000 25.0000 25.0000Z"/></g><g stroke-linejoin="miter" stroke-opacity="1.0" fill-opacity="1.0" stroke="rgb(0,0,0)" stroke-width="2.6832815729997477" fill="rgb(255,255,0)" stroke-linecap="butt" stroke-miterlimit="10.0"><path d="M 0.0000,75.0000 l -0.0000,25.0000 c 13.8071,0.0000 25.0000,-11.1929 25.0000 -25.0000c 0.0000,-13.8071 -11.1929,-25.0000 -25.0000 -25.0000Z"/></g><g stroke-linejoin="miter" stroke-opacity="1.0" fill-opacity="1.0" stroke="rgb(0,0,0)" stroke-width="2.6832815729997477" fill="rgb(255,255,0)" stroke-linecap="butt" stroke-miterlimit="10.0"><path d="M 75.0000,0.0000 l -25.0000,-0.0000 c -0.0000,13.8071 11.1929,25.0000 25.0000 25.0000c 13.8071,0.0000 25.0000,-11.1929 25.0000 -25.0000Z"/></g></svg>