<?xml version="1.0" encoding="UTF-8"?>
<!DOCTYPE svg PUBLIC "-//W3C//DTD SVG 1.1//EN"
    "http://www.w3.org/Graphics/SVG/1.1/DTD/svg11.dtd"><svg xmlns="http://www.w3.org/2000/svg" height="250.0000" stroke-opacity="1" viewBox="0 0 1000 250" font-size="1" width="1000.0000" xmlns:xlink="http://www.w3.org/1999/xlink" stroke="rgb(0,0,0)" version="1.1"><defs></defs><g stroke-linejoin="miter" stroke-opacity="1.0" fill-opacity="0.0" stroke="rgb(0,0,0)" stroke-width="2.0000000000000004" fill="rgb(0,0,0)" stroke-linecap="butt" stroke-miterlimit="10.0"><path d="M 1000.0000,250.0000 l -0.0000,-250.0000 h -250.0000 l -0.0000,250.0000 Z"/></g><g stroke-linejoin="miter" stroke-opacity="1.0" fill-opacity="1.0" stroke="rgb(0,0,0)" stroke-width="2.0000000000000004" fill="rgb(173,216,230)" stroke-linecap="butt" stroke-miterlimit="10.0"><path d="M 875.0000,250.0000 h 41.6667 c 0.0000,-23.0119 -18.6548,-41.6667 -41.6667 -41.6667c -23.0119,-0.0000 -41.6667,18.6548 -41.6667 41.6667Z"/></g><g stroke-linejoin="miter" stroke-opacity="1.0" fill-opacity="1.0" stroke="rgb(0,0,0)" stroke-width="2.0000000000000004" fill="rgb(173,216,230)" stroke-linecap="butt" stroke-miterlimit="10.0"><path d="M 1000.0000,166.6667 v -83.3333 c -46.0237,-0.0000 -83.3333,-37.3096 -83.3333 -83.3333h -83.3333 c -0.0000,46.0237 -37.3096,83.3333 -83.3333 83.3333v 83.3333 Z"/></g><g stroke-linejoin="miter" stroke-opacity="1.0" fill-opacity="0.0" stroke="rgb(0,0,0)" stroke-width="2.0000000000000004" fill="rgb(0,0,0)" stroke-linecap="butt" stroke-miterlimit="10.0"><path d="M 500.0000,250.0000 l 250.0000,0.0000 l 0.0000,-250.0000 l -250.0000,-0.0000 Z"/></g><g stroke-linejoin="miter" stroke-opacity="1.0" fill-opacity="1.0" stroke="rgb(0,0,0)" stroke-width="2.0000000000000004" fill="rgb(255,192,203)" stroke-linecap="butt" stroke-miterlimit="10.0"><path d="M 500.0000,125.0000 l -0.0000,41.6667 c 23.0119,0.0000 41.6667,-18.6548 41.6667 -41.6667c 0.0000,-23.0119 -18.6548,-41.6667 -41.6667 -41.6667Z"/></g><g stroke-linejoin="miter" stroke-opacity="1.0" fill-opacity="1.0" stroke="rgb(0,0,0)" stroke-width="2.0000000000000004" fill="rgb(245,222,179)" stroke-linecap="butt" stroke-miterlimit="10.0"><path d="M 625.0000,250.0000 l 41.6667,0.0000 c 0.0000,-23.0119 -18.6548,-41.6667 -41.6667 -41.6667c -23.0119,-0.0000 -41.6667,18.6548 -41.6667 41.6667Z"/></g><g stroke-linejoin="miter" stroke-opacity="1.0" fill-opacity="1.0" stroke="rgb(0,0,0)" stroke-width="2.0000000000000004" fill="rgb(245,222,179)" stroke-linecap="butt" stroke-miterlimit="10.0"><path d="M 625.0000,0.0000 l -41.6667,-0.0000 c -0.0000,23.0119 18.6548,41.6667 41.6667 41.6667c 23.0119,0.0000 41.6667,-18.6548 41.6667 -41.6667Z"/></g><g stroke-linejoin="miter" stroke-opacity="1.0" fill-opacity="1.0" stroke="rgb(0,0,0)" stroke-width="2.0000000000000004" fill="rgb(245,222,179)" stroke-linecap="butt" stroke-miterlimit="10.0"><path d="M 750.0000,125.0000 l 0.0000,-41.6667 c -23.0119,-0.0000 -41.6667,18.6548 -41.6667 41.6667c -0.0000,23.0119 18.6548,41.6667 41.6667 41.6667Z"/></g><g stroke-linejoin="miter" stroke-opacity="1.0" fill-opacity="0.0" stroke="rgb(0,0,0)" stroke-width="2.0000000000000004" fill="rgb(0,0,0)" stroke-linecap="butt" stroke-miterlimit="10.0"><path d="M 500.0000,250.0000 l -0.0000,-250.0000 h -250.0000 l -0.0000,250.0000 Z"/></g><g stroke-linejoin="miter" stroke-opacity="1.0" fill-opacity="1.0" stroke="rgb(0,0,0)" stroke-width="2.0000000000000004" fill="rgb(173,216,230)" stroke-linecap="butt" stroke-miterlimit="10.0"><path d="M 375.0000,250.0000 h 41.6667 c 0.0000,-23.0119 -18.6548,-41.6667 -41.6667 -41.6667c -23.0119,-0.0000 -41.6667,18.6548 -41.6667 41.6667Z"/></g><g stroke-linejoin="miter" stroke-opacity="1.0" fill-opacity="1.0" stroke="rgb(0,0,0)" stroke-width="2.0000000000000004" fill="rgb(255,192,203)" stroke-linecap="butt" stroke-miterlimit="10.0"><path d="M 500.0000,125.0000 l 0.0000,-41.6667 c -23.0119,-0.0000 -41.6667,18.6548 -41.6667 41.6667c -0.0000,23.0119 18.6548,41.6667 41.6667 41.6667Z"/></g><g stroke-linejoin="miter" stroke-opacity="1.0" fill-opacity="1.0" stroke="rgb(0,0,0)" stroke-width="2.0000000000000004" fill="rgb(173,216,230)" stroke-linecap="butt" stroke-miterlimit="10.0"><path d="M 250.0000,125.0000 l -0.0000,41.6667 c 23.0119,0.0000 41.6667,-18.6548 41.6667 -41.6667c 0.0000,-23.0119 -18.6548,-41.6667 -41.6667 -41.6667Z"/></g><g stroke-linejoin="miter" stroke-opacity="1.0" fill-opacity="1.0" stroke="rgb(0,0,0)" stroke-width="2.0000000000000004" fill="rgb(245,222,179)" stroke-linecap="butt" stroke-miterlimit="10.0"><path d="M 375.0000,0.0000 l -41.6667,-0.0000 c -0.0000,23.0119 18.6548,41.6667 41.6667 41.6667c 23.0119,0.0000 41.6667,-18.6548 41.6667 -41.6667Z"/></g><g stroke-linejoin="miter" stroke-opacity="1.0" fill-opacity="0.0" stroke="rgb(0,0,0)" stroke-width="2.0000000000000004" fill="rgb(0,0,0)" stroke-linecap="butt" stroke-miterlimit="10.0"><path d="M -0.0000,0.0000 l -0.0000,250.0000 l 250.0000,0.0000 l 0.0000,-250.0000 Z"/></g><g stroke-linejoin="miter" stroke-opacity="1.0" fill-opacity="1.0" stroke="rgb(0,0,0)" stroke-width="2.0000000000000004" fill="rgb(255,192,203)" stroke-linecap="butt" stroke-miterlimit="10.0"><path d="M -0.0000,125.0000 l -0.0000,41.6667 c 23.0119,0.0000 41.6667,-18.6548 41.6667 -41.6667c 0.0000,-23.0119 -18.6548,-41.6667 -41.6667 -41.6667Z"/></g><g stroke-linejoin="miter" stroke-opacity="1.0" fill-opacity="1.0" stroke="rgb(0,0,0)" stroke-width="2.0000000000000004" fill="rgb(245,222,179)" stroke-linecap="butt" stroke-miterlimit="10.0"><path d="M 125.0000,0.0000 l -41.6667,-0.0000 c -0.0000,23.0119 18.6548,41.6667 41.6667 41.6667c 23.0119,0.0000 41.6667,-18.6548 41.6667 -41.6667Z"/></g><g stroke-linejoin="miter" stroke-opacity="1.0" fill-opacity="1.0" stroke="rgb(0,0,0)" stroke-width="2.0000000000000004" fill="rgb(173,216,230)" stroke-linecap="butt" stroke-miterlimit="10.0"><path d="M 250.0000,166.6667 l 0.0000,-83.3333 c -92.0475,-0.0000 -166.6667,74.6192 -166.6667 166.6667l 83.3333,0.0000 c 0.0000,-46.0237 37.3096,-83.3333 83.3333 -83.3333Z"/></g></svg>