<?xml version="1.0" encoding="UTF-8"?>
<!DOCTYPE svg PUBLIC "-//W3C//DTD SVG 1.1//EN"
    "http://www.w3.org/Graphics/SVG/1.1/DTD/svg11.dtd"><svg xmlns="http://www.w3.org/2000/svg" height="600.0000" stroke-opacity="1" viewBox="0 0 600 600" font-size="1" width="600.0000" xmlns:xlink="http://www.w3.org/1999/xlink" stroke="rgb(0,0,0)" version="1.1"><defs></defs><g stroke-linejoin="miter" stroke-opacity="1.0" fill-opacity="1.0" stroke="rgb(0,0,0)" stroke-width="2.4" fill="rgb(144,238,144)" stroke-linecap="butt" stroke-miterlimit="10.0"><path d="M 600.0000,0.0000 l -600.0000,0.0000 l -0.0000,600.0000 l 600.0000,0.0000 Z"/></g><g stroke-linejoin="miter" stroke-opacity="1.0" fill-opacity="1.0" stroke="rgb(0,0,0)" stroke-width="2.4" fill="rgb(245,222,179)" stroke-linecap="butt" stroke-miterlimit="10.0"><path d="M 600.0000,300.0000 l 0.0000,-100.0000 c -55.2285,-0.0000 -100.0000,44.7715 -100.0000 100.0000c -0.0000,55.2285 44.7715,100.0000 100.0000 100.0000Z"/></g><g stroke-linejoin="miter" stroke-opacity="1.0" fill-opacity="1.0" stroke="rgb(0,0,0)" stroke-width="2.4" fill="rgb(173,216,230)" stroke-linecap="butt" stroke-miterlimit="10.0"><path d="M 300.0000,0.0000 l -100.0000,-0.0000 c -0.0000,55.2285 44.7715,100.0000 100.0000 100.0000c 55.2285,0.0000 100.0000,-44.7715 100.0000 -100.0000Z"/></g><g stroke-linejoin="miter" stroke-opacity="1.0" fill-opacity="1.0" stroke="rgb(0,0,0)" stroke-width="2.4" fill="rgb(245,222,179)" stroke-linecap="butt" stroke-miterlimit="10.0"><path d="M 300.0000,600.0000 l 100.0000,0.0000 c 0.0000,-55.2285 -44.7715,-100.0000 -100.0000 -100.0000c -55.2285,-0.0000 -100.0000,44.7715 -100.0000 100.0000Z"/></g><g stroke-linejoin="miter" stroke-opacity="1.0" fill-opacity="1.0" stroke="rgb(0,0,0)" stroke-width="2.4" fill="rgb(245,222,179)" stroke-linecap="butt" stroke-miterlimit="10.0"><path d="M 0.0000,300.0000 l -0.0000,100.0000 c 55.2285,0.0000 100.0000,-44.7715 100.0000 -100.0000c 0.0000,-55.2285 -44.7715,-100.0000 -100.0000 -100.0000Z"/></g></svg>